<svg width="1080" height="1080" viewBox="0 0 1080 1080" fill="none" xmlns="http://www.w3.org/2000/svg">
<path d="M239.75 444.001V569.384V636.999H303.183V569.384H432.748V512.272H303.183V502.425H432.747V444.001H239.75Z" fill="black"/>
<path d="M239.75 569.384V444.001M239.75 444.001H432.747V502.425H303.183V512.272H432.748V569.384H303.183V636.999H239.75V444.001Z" stroke="black" stroke-width="1.31291"/>
<path d="M443.251 444.001V569.384V636.999H506.684V569.384H636.249V512.272H506.684V502.425H636.248V444.001H443.251Z" fill="black"/>
<path d="M443.251 569.384V444.001M443.251 444.001H636.248V502.425H506.684V512.272H636.249V569.384H506.684V636.999H443.251V444.001Z" stroke="black" stroke-width="1.31291"/>
<path d="M646.752 444.001V569.384V636.999H710.185V569.384H839.75V512.272H710.185V502.425H839.748V444.001H646.752Z" fill="black"/>
<path d="M646.752 569.384V444.001M646.752 444.001H839.748V502.425H710.185V512.272H839.75V569.384H710.185V636.999H646.752V444.001Z" stroke="black" stroke-width="1.31291"/>
</svg>
